# xmcd
#
# Track frame offsets: 
#        150
#        16640
#        30496
#        45087
#        65133
#        81653
#
# Disc length: 1311 seconds
#
# Revision: 0
# Processed by: cddbd v1.5.2PL0 Copyright (c) Steve Scherf et al.
# Submitted via: ExactAudioCopy v0.95b4
#
DISCID=3f051d06
DTITLE=Howard and Rose - True Blue
DYEAR=2007
DGENRE=Blues
TTITLE0=Trouble In Mind
TTITLE1=Route 66
TTITLE2=Big 'R' Blues
TTITLE3=Lovesick Blues
TTITLE4=Every Day I Have the Blues
TTITLE5=Down Home Blues
EXTD=Howie_n_Rose@shaw.ca\nwww.myspace.com/howardrose
EXTT0=
EXTT1=
EXTT2=
EXTT3=
EXTT4=
EXTT5=
PLAYORDER=
